<?xml version="1.0" standalone="no"?>
<!DOCTYPE svg PUBLIC "-//W3C//DTD SVG 20010904//EN"
 "http://www.w3.org/TR/2001/REC-SVG-20010904/DTD/svg10.dtd">
<svg version="1.0" xmlns="http://www.w3.org/2000/svg"
 width="240.000000pt" height="240.000000pt" viewBox="0 0 240.000000 240.000000"
 preserveAspectRatio="xMidYMid meet">

<g transform="translate(0.000000,240.000000) scale(0.100000,-0.100000)"
fill="#000000" stroke="none">
<path d="M0 1200 l0 -1200 1200 0 1200 0 0 1200 0 1200 -1200 0 -1200 0 0
-1200z m2200 1140 c0 -5 -5 -10 -11 -10 -5 0 -7 5 -4 10 3 6 8 10 11 10 2 0 4
-4 4 -10z m-155 -53 c4 5 2 -3 -4 -15 -7 -13 -10 -26 -8 -29 8 -7 57 39 57 54
0 8 4 12 10 8 5 -3 7 -13 4 -23 -4 -12 0 -11 14 6 27 30 31 28 25 -12 -4 -31
-2 -34 16 -29 12 3 21 10 21 15 0 5 -5 6 -11 2 -16 -9 6 29 25 45 10 8 16 9
21 1 3 -5 -1 -10 -9 -10 -10 0 -14 -9 -12 -27 1 -16 7 -27 14 -26 6 2 9 -3 6
-11 -3 -8 0 -17 5 -21 6 -3 9 -11 5 -16 -3 -5 8 -8 25 -7 20 1 27 6 21 12 -15
15 -12 26 5 20 10 -4 15 0 16 12 0 11 5 4 11 -15 5 -19 7 -43 5 -53 -3 -10 -1
-18 4 -18 5 0 9 9 9 19 0 14 5 18 18 14 10 -2 20 -10 22 -16 1 -7 5 -168 7
-359 l4 -347 -32 9 c-37 11 -32 6 -52 50 -22 49 -27 70 -29 117 -1 24 -7 44
-14 47 -8 3 -11 12 -7 22 4 12 2 15 -8 12 -9 -3 -13 -16 -11 -36 6 -58 -6 -33
-19 41 -7 39 -14 75 -15 80 -1 4 -2 15 -3 25 -3 20 -39 -84 -40 -114 -1 -11
-7 -29 -15 -39 -13 -18 -13 -15 -6 25 12 58 12 60 1 60 -5 0 -12 -10 -16 -22
-7 -21 -8 -20 -12 9 -2 17 3 45 11 62 9 16 16 36 15 43 0 7 -11 -9 -23 -37
-13 -27 -28 -51 -35 -51 -6 -1 -13 -3 -16 -4 -22 -11 -45 2 -45 25 0 6 5 3 10
-5 7 -10 10 -11 10 -2 0 7 -7 15 -15 18 -11 4 -13 13 -9 27 6 21 6 21 -20 4
-21 -14 -27 -15 -31 -4 -6 15 -45 20 -45 6 0 -6 -4 -8 -9 -5 -5 4 -11 0 -14
-6 -5 -16 -15 -8 -20 18 -7 36 -19 53 -33 47 -8 -3 -11 -9 -8 -14 3 -5 1 -9
-5 -9 -5 0 -16 -2 -24 -6 -10 -4 -20 14 -37 66 -13 39 -30 81 -40 93 -25 33
-44 71 -31 63 20 -13 11 15 -13 39 -17 16 -20 25 -11 29 7 2 19 -1 26 -7 12
-10 12 -9 2 3 -7 7 -13 23 -13 35 0 19 6 21 55 20 30 0 60 -6 67 -13 14 -14
32 -16 24 -3 -8 12 18 21 43 14 12 -3 20 -12 19 -21 -2 -9 5 -18 16 -20 11 -2
16 0 12 7 -9 14 7 14 21 0 9 -9 8 -15 -3 -27 -13 -13 -17 -12 -32 1 -13 12
-22 13 -35 5 -18 -9 -18 -10 0 -24 17 -13 17 -13 0 -14 -10 0 -15 -5 -12 -10
5 -8 11 -8 19 0 7 5 25 11 39 12 14 1 24 5 21 9 -2 4 7 14 21 23 14 9 25 12
25 6 0 -5 5 -10 11 -10 8 0 7 5 -1 15 -7 9 -19 14 -26 11 -18 -7 -26 5 -13 20
6 7 17 10 25 7 9 -3 12 0 9 9 -3 8 1 21 9 28 9 7 13 16 10 21 -3 5 3 9 13 9
15 0 16 2 3 10 -14 9 -7 15 15 10 6 -1 5 4 -2 11 -10 9 -15 10 -27 0 -8 -7
-17 -8 -20 -3 -3 6 1 13 10 16 9 3 12 11 8 18 -4 7 4 3 18 -10 13 -12 28 -19
33 -15z m-275 -17 c13 -8 13 -10 -2 -10 -9 0 -20 5 -23 10 -8 13 5 13 25 0z
m-72 -21 c-2 -6 3 -14 11 -17 9 -3 11 0 6 8 -5 9 -4 11 3 6 18 -11 14 -23 -8
-29 -13 -3 -20 0 -20 9 0 8 -5 14 -11 14 -5 0 -7 5 -4 10 8 14 26 13 23 -1z
m223 -6 c13 -16 12 -17 -3 -4 -10 7 -18 15 -18 17 0 8 8 3 21 -13z m425 -1 c1
-7 0 -8 -3 -2 -2 5 -9 8 -14 4 -5 -3 -9 0 -9 6 0 15 23 7 26 -8z m-439 -54
c-3 -7 -5 -2 -5 12 0 14 2 19 5 13 2 -7 2 -19 0 -25z m53 18 c0 -2 -7 -7 -16
-10 -8 -3 -12 -2 -9 4 6 10 25 14 25 6z m410 0 c0 -2 -7 -6 -15 -10 -8 -3 -15
-1 -15 4 0 6 7 10 15 10 8 0 15 -2 15 -4z m-1322 -186 c4 -1 11 -2 17 0 5 1
15 -7 22 -16 7 -10 13 -15 13 -12 0 3 21 -2 48 -11 26 -9 45 -19 42 -21 -3 -3
5 -19 17 -35 14 -21 18 -36 13 -46 -12 -20 4 -75 20 -71 7 1 18 -3 26 -9 8 -6
14 -8 14 -4 0 4 7 1 17 -6 9 -8 26 -13 37 -11 16 2 18 1 7 -6 -7 -6 -10 -15
-6 -22 5 -9 2 -10 -13 -6 -13 4 -22 1 -26 -9 -3 -9 -18 -15 -36 -15 -17 0 -29
4 -26 9 10 15 -91 3 -126 -15 -64 -33 -68 -45 -67 -178 0 -67 0 -123 -1 -126
-1 -3 -3 -15 -4 -27 -3 -27 -33 -63 -53 -63 -7 0 -19 11 -25 25 -12 27 -24 32
-30 13 -5 -14 10 -32 56 -65 16 -13 27 -23 23 -23 -4 0 -3 -9 2 -19 9 -17 6
-19 -24 -23 -37 -4 -60 12 -84 60 -10 18 -9 22 4 22 9 0 13 5 10 10 -3 6 -17
7 -31 4 -50 -13 -101 46 -82 96 8 20 6 27 -11 38 -16 11 -18 18 -9 37 9 21 19
24 87 29 136 10 126 6 129 54 3 47 -26 107 -56 116 -39 12 -76 15 -86 7 -7 -5
-15 -4 -22 3 -15 16 -14 29 3 49 10 11 12 17 4 17 -13 0 -5 46 12 68 6 8 6 12
-2 12 -12 0 -14 41 -5 77 3 12 19 28 35 35 29 13 42 32 14 22 -8 -4 -15 -2
-15 3 0 18 132 45 168 33z m-404 -202 c-4 -6 -8 -25 -10 -41 -1 -16 -12 -43
-24 -59 -12 -16 -19 -32 -16 -35 3 -4 6 -1 6 5 0 7 5 12 10 12 15 0 12 -16 -5
-34 -9 -8 -22 -13 -30 -10 -8 4 -20 -6 -30 -25 -8 -17 -19 -31 -24 -31 -15 0
-22 33 -9 42 10 6 10 8 -2 8 -13 0 -13 1 0 10 10 6 11 10 3 10 -18 0 -16 65 2
80 8 7 15 9 15 5 0 -4 6 -2 13 4 17 13 28 4 20 -17 -4 -10 -2 -13 6 -8 6 4 11
15 10 24 -3 31 1 43 11 37 6 -3 10 2 11 12 0 16 1 16 8 -1 7 -19 8 -19 16 0 4
10 7 23 6 27 -1 5 3 6 9 2 6 -3 7 -11 4 -17z m-161 -110 c-3 -18 -12 -38 -21
-45 -19 -14 -33 -17 -31 -5 3 20 -3 32 -17 32 -8 0 -13 -4 -10 -9 3 -5 -1 -15
-10 -22 -14 -12 -16 -11 -13 6 2 11 14 24 27 30 12 5 22 16 22 23 0 9 6 12 15
8 8 -3 15 -1 15 4 0 6 6 10 14 10 10 0 13 -9 9 -32z m1 -83 c-3 -35 -23 -83
-24 -57 0 7 -4 10 -10 7 -5 -3 -10 1 -10 10 0 9 4 13 10 10 5 -3 12 7 16 22
13 53 21 57 18 8z m744 28 c-10 -2 -26 -2 -35 0 -10 3 -2 5 17 5 19 0 27 -2
18 -5z m-28 -48 c0 -9 7 -18 15 -21 25 -10 6 -25 -23 -18 -41 10 -50 23 -28
40 25 18 36 18 36 -1z m-675 -25 c3 -5 1 -10 -4 -10 -6 0 -11 5 -11 10 0 6 2
10 4 10 3 0 8 -4 11 -10z m857 -15 c-9 -48 -106 -221 -122 -217 -6 1 -9 -2 -6
-7 7 -10 -32 -40 -76 -58 -26 -12 -26 -11 -32 35 -4 26 -7 57 -7 70 -1 12 -5
22 -10 22 -5 0 -6 15 -3 33 4 17 6 44 5 58 -2 37 19 52 53 39 55 -20 135 -3
149 33 3 8 16 14 29 13 17 -1 22 -6 20 -21z m-962 11 c0 -3 -4 -8 -10 -11 -5
-3 -10 -1 -10 4 0 6 5 11 10 11 6 0 10 -2 10 -4z m475 -6 c3 -5 -3 -10 -15
-10 -12 0 -18 5 -15 10 3 6 10 10 15 10 5 0 12 -4 15 -10z m-477 -232 c17 -51
39 -127 50 -168 12 -41 48 -148 81 -238 35 -94 67 -200 76 -253 8 -49 22 -106
30 -126 31 -74 -13 -128 -112 -138 -27 -2 -39 -2 -28 1 11 3 25 13 32 21 6 8
17 12 24 7 9 -5 10 3 5 34 -4 28 -3 42 5 42 6 0 8 7 5 16 -4 9 0 25 9 34 12
14 14 31 9 88 -4 45 -11 69 -18 66 -13 -5 -71 43 -71 59 0 7 6 15 15 19 13 6
13 7 0 7 -8 1 -21 13 -28 29 -7 15 -30 46 -51 70 -35 37 -43 42 -75 37 -37 -4
-45 2 -24 23 19 19 -22 15 -44 -5 -10 -9 -18 -11 -18 -5 0 6 -9 14 -20 17 -11
3 -20 11 -20 17 0 11 -45 68 -52 65 -2 -1 3 4 11 11 17 14 51 6 68 -17 28 -36
11 14 -31 97 -25 48 -52 110 -61 137 -10 28 -28 62 -42 77 -25 26 -25 26 -4
33 11 3 25 4 30 0 12 -7 103 -156 148 -240 39 -75 52 -84 86 -59 24 17 39 43
18 30 -9 -6 -25 28 -36 78 -5 25 -4 28 9 17 12 -10 14 -9 9 8 -3 12 -9 18 -14
15 -9 -5 -15 15 -24 91 -4 28 -13 61 -22 74 -12 19 -13 25 -2 32 26 16 47 -12
77 -103z m1537 102 c3 -5 1 -10 -4 -10 -6 0 -11 5 -11 10 0 6 2 10 4 10 3 0 8
-4 11 -10z m62 -6 c-3 -3 -12 -4 -19 -1 -8 3 -5 6 6 6 11 1 17 -2 13 -5z m70
0 c-3 -3 -12 -4 -19 -1 -8 3 -5 6 6 6 11 1 17 -2 13 -5z m283 -15 c0 -6 -4 -7
-10 -4 -5 3 -10 11 -10 16 0 6 5 7 10 4 6 -3 10 -11 10 -16z m-55 1 c-3 -5
-10 -10 -16 -10 -5 0 -9 5 -9 10 0 6 7 10 16 10 8 0 12 -4 9 -10z m-115 -10
c13 -9 13 -10 0 -10 -8 0 -22 5 -30 10 -13 9 -13 10 0 10 8 0 22 -5 30 -10z
m-1167 -217 c43 -7 32 -23 -15 -23 -15 0 -30 -5 -33 -10 -12 -19 15 -37 65
-44 27 -4 51 -10 54 -14 2 -4 -2 -22 -11 -39 -17 -35 -60 -56 -86 -41 -15 8
-57 85 -57 104 0 4 -7 12 -15 18 -14 10 -14 13 0 34 17 23 35 26 98 15z m-783
-273 c0 -4 15 -17 32 -28 26 -17 29 -22 17 -27 -13 -5 -65 22 -118 61 -1 2 0
7 3 13 7 11 66 -6 66 -19z m118 -64 c-7 -8 -17 -12 -22 -9 -4 3 -2 9 5 14 22
13 31 11 17 -5z m824 -130 c-3 -14 1 -17 13 -12 9 3 13 2 10 -4 -4 -6 2 -7 17
-1 14 5 32 4 46 -2 18 -8 25 -8 32 2 4 8 14 11 21 9 8 -3 19 2 25 10 10 14 39
8 30 -6 -2 -4 7 -7 20 -7 15 0 22 5 19 13 -3 7 5 12 20 12 14 0 25 -5 25 -11
0 -16 27 -39 46 -39 10 0 14 -3 11 -6 -3 -4 -2 -15 4 -26 7 -13 7 -23 0 -32
-6 -7 -8 -25 -4 -42 7 -34 7 -33 -6 -146 -5 -47 -15 -103 -22 -122 -10 -28
-10 -39 -1 -48 9 -9 9 -15 -1 -26 -10 -13 -9 -14 10 -4 57 31 34 5 -60 -67
-128 -99 -156 -105 -350 -76 -117 18 -167 33 -167 52 0 7 -4 13 -10 13 -5 0
-10 -5 -10 -11 0 -23 -18 3 -24 36 -7 38 -65 144 -90 164 -13 11 -12 16 11 35
15 13 28 35 29 52 3 36 25 96 39 106 6 4 6 8 1 8 -5 0 9 16 30 36 24 21 46 33
57 30 10 -2 17 1 17 11 0 8 4 12 9 8 5 -3 12 3 16 12 3 10 17 26 31 37 21 15
30 16 50 7 19 -8 24 -8 24 3 0 13 45 32 64 27 5 -1 3 5 -4 15 -13 14 -12 16 5
12 13 -2 19 -10 17 -22z m1178 -71 c0 -2 -9 -9 -20 -15 -12 -6 -20 -7 -20 -1
0 5 8 12 18 14 9 3 18 5 20 6 1 0 2 -1 2 -4z m-69 -23 c-9 -3 -9 -7 0 -18 9
-11 6 -14 -20 -14 -36 0 -42 -17 -8 -22 15 -3 11 -5 -16 -9 -45 -6 -56 -1 -59
31 -2 19 1 24 14 22 9 -1 19 2 22 7 3 5 22 9 42 8 20 -1 32 -3 25 -5z m-121
-6 c0 -11 -19 -15 -25 -6 -3 5 1 10 9 10 9 0 16 -2 16 -4z m160 -76 c-8 -5
-31 -10 -50 -10 -26 0 -31 3 -20 10 8 5 31 10 50 10 26 0 31 -3 20 -10z m-90
-4 c0 -3 -4 -8 -10 -11 -5 -3 -10 -1 -10 4 0 6 5 11 10 11 6 0 10 -2 10 -4z
m113 -23 c-7 -2 -19 -2 -25 0 -7 3 -2 5 12 5 14 0 19 -2 13 -5z m-50 -90 c-7
-2 -19 -2 -25 0 -7 3 -2 5 12 5 14 0 19 -2 13 -5z m-470 -60 c-7 -2 -19 -2
-25 0 -7 3 -2 5 12 5 14 0 19 -2 13 -5z m-63 -13 c-8 -5 -19 -10 -25 -10 -5 0
-3 5 5 10 8 5 20 10 25 10 6 0 3 -5 -5 -10z m117 -27 c2 -6 -4 -13 -14 -16
-10 -3 -45 -15 -78 -27 -33 -13 -73 -26 -90 -30 -16 -4 -39 -11 -50 -16 -17
-7 -18 -6 -7 8 7 8 47 28 90 44 42 15 88 34 102 41 27 14 42 13 47 -4z m64 2
c-39 -17 -51 -19 -51 -6 0 11 23 18 60 19 22 1 21 0 -9 -13z"/>
<path d="M2120 2275 c-7 -8 -16 -13 -20 -10 -4 2 -16 -3 -26 -11 -18 -15 -18
-15 4 -11 12 3 20 1 16 -4 -3 -5 -1 -9 3 -9 5 0 17 14 26 30 19 32 18 40 -3
15z"/>
<path d="M2095 2210 c-3 -5 -1 -10 4 -10 6 0 11 5 11 10 0 6 -2 10 -4 10 -3 0
-8 -4 -11 -10z"/>
<path d="M1960 1855 c-14 -16 -10 -18 14 -9 9 3 16 10 16 15 0 14 -16 11 -30
-6z"/>
<path d="M1195 1840 c3 -5 8 -10 11 -10 2 0 4 5 4 10 0 6 -5 10 -11 10 -5 0
-7 -4 -4 -10z"/>
<path d="M451 1694 c0 -11 3 -14 6 -6 3 7 2 16 -1 19 -3 4 -6 -2 -5 -13z"/>
<path d="M447 1005 c-4 -8 -2 -17 3 -20 6 -4 10 3 10 14 0 25 -6 27 -13 6z"/>
<path d="M371 994 c0 -11 3 -14 6 -6 3 7 2 16 -1 19 -3 4 -6 -2 -5 -13z"/>
</g>
</svg>
